# xmcd
#
# Track frame offsets: 
#        150
#        14840
#        46439
#        75956
#        101051
#        124230
#        150961
#        174675
#
# Disc length: 2490 seconds
#
# Revision: 2
# Processed by: cddbd v1.5.2PL0 Copyright (c) Steve Scherf et al.
# Submitted via: ExactAudioCopy v0.99pb5
#
DISCID=5d09b808
DTITLE=Various Artist - Music For Lovers - Jazz for Romantic Mood
DYEAR=2006
DGENRE=Jazz
TTITLE0=Stan Getz - Moonlight In Vermont
TTITLE1=Horace Silver - My One An Only Love
TTITLE2=Jimmy Smith - Time After Time
TTITLE3=Lee Morgan - Since I Feel For You
TTITLE4=Hank Mobley - The Good Life
TTITLE5=Stanley Turrentine - My Ship
TTITLE6=Dexter Gordon - Who Can I Turn To?
TTITLE7=Earl Klugh - Like A Lover
EXTD=YEAR: 2006
EXTT0=
EXTT1=
EXTT2=
EXTT3=
EXTT4=
EXTT5=
EXTT6=
EXTT7=
PLAYORDER=
